{
  "accessors": [
    {
      "bufferView": 2,
      "componentType": 5126,
      "count": 1249,
      "max": [
        1.3814834356307983,
        1.9999982118606567,
        0.9037247896194458
      ],
      "min": [
        -1.3811875581741333,
        -2.0000016689300537,
        -0.9599390029907227
      ],
      "type": "VEC3"
    },
    {
      "bufferView": 2,
      "byteOffset": 14988,
      "componentType": 5126,
      "count": 1249,
      "type": "VEC3"
    },
    {
      "bufferView": 3,
      "componentType": 5126,
      "count": 1249,
      "type": "VEC4"
    },
    {
      "bufferView": 1,
      "componentType": 5126,
      "count": 1249,
      "type": "VEC2"
    },
    {
      "bufferView": 1,
      "byteOffset": 9992,
      "componentType": 5126,
      "count": 1249,
      "type": "VEC2"
    },
    {
      "bufferView": 1,
      "byteOffset": 19984,
      "componentType": 5126,
      "count": 1249,
      "type": "VEC2"
    },
    {
      "bufferView": 0,
      "componentType": 5125,
      "count": 2298,
      "type": "SCALAR"
    },
    {
      "bufferView": 2,
      "byteOffset": 29976,
      "componentType": 5126,
      "count": 514,
      "max": [
        1.3814834356307983,
        1.79219651222229,
        0.6046817898750305
      ],
      "min": [
        -1.3811875581741333,
        -1.7922002077102661,
        -0.48314499855041504
      ],
      "type": "VEC3"
    },
    {
      "bufferView": 2,
      "byteOffset": 36144,
      "componentType": 5126,
      "count": 514,
      "type": "VEC3"
    },
    {
      "bufferView": 1,
      "byteOffset": 29976,
      "componentType": 5126,
      "count": 514,
      "type": "VEC2"
    },
    {
      "bufferView": 0,
      "byteOffset": 9192,
      "componentType": 5125,
      "count": 720,
      "type": "SCALAR"
    }
  ],
  "asset": {
    "generator": "fab-model-conversion",
    "version": "2.0"
  },
  "bufferViews": [
    {
      "buffer": 0,
      "byteLength": 12072,
      "target": 34963
    },
    {
      "buffer": 0,
      "byteLength": 34088,
      "byteOffset": 12072,
      "byteStride": 8,
      "target": 34962
    },
    {
      "buffer": 0,
      "byteLength": 42312,
      "byteOffset": 46160,
      "byteStride": 12,
      "target": 34962
    },
    {
      "buffer": 0,
      "byteLength": 19984,
      "byteOffset": 88472,
      "byteStride": 16,
      "target": 34962
    }
  ],
  "buffers": [
    {
      "byteLength": 108456,
      "uri": "scene.bin"
    }
  ],
  "extensionsUsed": [
    "KHR_materials_transmission",
    "KHR_materials_specular"
  ],
  "images": [
    {
      "uri": "textures/trim_baseColor.jpeg"
    },
    {
      "uri": "textures/trim_metallicRoughness.jpeg"
    },
    {
      "uri": "textures/trim_normal.jpeg"
    }
  ],
  "materials": [
    {
      "doubleSided": true,
      "name": "trim",
      "normalTexture": {
        "index": 2
      },
      "occlusionTexture": {
        "index": 1
      },
      "pbrMetallicRoughness": {
        "baseColorTexture": {
          "index": 0
        },
        "metallicRoughnessTexture": {
          "index": 1
        }
      }
    },
    {
      "extensions": {
        "KHR_materials_specular": {
          "specularFactor": 0.376615914093568
        },
        "KHR_materials_transmission": {
          "transmissionFactor": 0
        }
      },
      "name": "glass",
      "pbrMetallicRoughness": {
        "baseColorFactor": [
          0.01889906863203238,
          0.01889906863203238,
          0.01889906863203238,
          1.0
        ],
        "metallicFactor": 0.285407216432159,
        "roughnessFactor": 0.0
      }
    }
  ],
  "meshes": [
    {
      "name": "corridor_windows_straight_trim_0",
      "primitives": [
        {
          "attributes": {
            "NORMAL": 1,
            "POSITION": 0,
            "TANGENT": 2,
            "TEXCOORD_0": 3,
            "TEXCOORD_1": 4,
            "TEXCOORD_2": 5
          },
          "indices": 6,
          "material": 0,
          "mode": 4
        }
      ]
    },
    {
      "name": "corridor_windows_windows_glass_0",
      "primitives": [
        {
          "attributes": {
            "NORMAL": 8,
            "POSITION": 7,
            "TEXCOORD_0": 9
          },
          "indices": 10,
          "material": 1,
          "mode": 4
        }
      ]
    }
  ],
  "nodes": [
    {
      "children": [
        1
      ],
      "matrix": [
        1.0,
        0.0,
        0.0,
        0.0,
        0.0,
        2.220446049250313e-16,
        -1.0,
        0.0,
        0.0,
        1.0,
        2.220446049250313e-16,
        0.0,
        0.0,
        0.0,
        0.0,
        1.0
      ],
      "name": "Sketchfab_model"
    },
    {
      "children": [
        2
      ],
      "matrix": [
        1.0,
        0.0,
        0.0,
        0.0,
        0.0,
        0.0,
        1.0,
        0.0,
        0.0,
        -1.0,
        0.0,
        0.0,
        0.0,
        0.0,
        0.0,
        1.0
      ],
      "name": "5858b3ad44104a9eb0da8d0fc45334a9.fbx"
    },
    {
      "children": [
        3
      ],
      "name": "RootNode"
    },
    {
      "children": [
        4,
        5
      ],
      "matrix": [
        1.0,
        0.0,
        0.0,
        0.0,
        0.0,
        -1.6292067939183141e-07,
        -0.9999999999999868,
        0.0,
        0.0,
        0.9999999999999868,
        -1.6292067939183141e-07,
        0.0,
        0.0,
        0.0,
        0.0,
        1.0
      ],
      "name": "corridor_windows_straight"
    },
    {
      "mesh": 0,
      "name": "corridor_windows_straight_trim_0"
    },
    {
      "children": [
        6
      ],
      "matrix": [
        1.0,
        0.0,
        0.0,
        0.0,
        0.0,
        1.0,
        -2.646977960169688e-23,
        0.0,
        0.0,
        2.646977960169688e-23,
        1.0,
        0.0,
        0.0,
        0.0,
        0.0,
        1.0
      ],
      "name": "corridor_windows_windows"
    },
    {
      "mesh": 1,
      "name": "corridor_windows_windows_glass_0"
    }
  ],
  "samplers": [
    {
      "magFilter": 9729,
      "minFilter": 9987,
      "wrapS": 10497,
      "wrapT": 10497
    }
  ],
  "scene": 0,
  "scenes": [
    {
      "name": "Sketchfab_Scene",
      "nodes": [
        0
      ]
    }
  ],
  "textures": [
    {
      "sampler": 0,
      "source": 0
    },
    {
      "sampler": 0,
      "source": 1
    },
    {
      "sampler": 0,
      "source": 2
    }
  ]
}
